<svg xmlns="http://www.w3.org/2000/svg" width="675" height="683" fill="none">
  <path fill="#1e1e1e" d="M638.48.12C458.48-4.57 93.6 122.85.6 638.58c-3.68 20.38 9.87 39.88 30.25 43.56 2.25.41 4.49.6 6.7.6 17.8 0 33.59-12.72 36.86-30.85 9.39-52.05 22.01-101.22 37.77-147.26l.49.1c16.25 3.46 35.82 4.96 57.26 4.96 56.4 0 125.67-10.35 181.15-22.46 43.5-9.49 83.74-21.14 113.32-32.79 38.57-15.2 57.93-29.32 62.77-45.79 4.62-15.72-.33-27.05-5.3-33.79-5.04-6.83-12.25-11.92-20.78-15.69 49.1-18.79 101.15-47.92 119.9-102.29 8.87-25.71 16.78-67.65 20.17-106.85 1.99-23.06 3.03-51.62-.52-75.06 18.83-1.56 33.85-17.07 34.35-36.39.54-20.7-15.81-37.92-36.51-38.46m-50.57 245.36c-8.52 24.7-27.83 45.18-59.05 62.59-28.35 15.82-61.55 26.24-88.22 34.62-6.99 2.19-13.59 4.27-19.69 6.3-8.2 2.73-13.19 10.88-11.88 19.36.23 1.47 2.68 14.41 17.96 14.94.91.03 2.23.05 3.9.08 51.64.71 61.35 10.36 62.77 12.28.18.24.53.72.01 2.7-.94 1.36-8.73 11.02-47.82 25.72-28.57 10.75-66.82 21.46-107.71 30.15-86.63 18.42-169.57 25.01-213.85 17.14 15.53-39.96 33.57-77.33 54.05-111.9 41.68-70.35 93.63-129.53 154.41-175.91 50.85-38.81 106.78-68.01 166.21-86.82 35.99-11.39 72.75-18.54 106.38-20.88 7.45 38.66-2.23 125.4-17.48 169.62z"/>
</svg>
