<?xml version="1.0" encoding="UTF-8"?>
<svg id="Layer_1" xmlns="http://www.w3.org/2000/svg" version="1.1" viewBox="0 0 328 329">
  <!-- Generator: Adobe Illustrator 30.0.0, SVG Export Plug-In . SVG Version: 2.1.1 Build 123)  -->
  <defs>
    <style>
      .st0 {
        fill: #fff;
      }
    </style>
  </defs>
  <path class="st0" d="M129,178.8h-58.8v-20h58.8c14.3,0,26-11.7,26-26v-60.5h20v60.5c0,25.4-20.6,46-46,46Z"/>
  <path class="st0" d="M176.6,265.2h-20v-60.5c0-25.4,20.6-46,46-46h58.8v20h-58.8c-14.3,0-26,11.7-26,26v60.5Z"/>
  <rect class="st0" x="188.4" y="109.3" width="58.2" height="20" transform="translate(-21 187.3) rotate(-44.7)"/>
  <rect class="st0" x="85.9" y="211.4" width="58.2" height="20" transform="translate(-122.4 144.8) rotate(-44.7)"/>
  <rect class="st0" x="103.1" y="87.9" width="20" height="58.2" transform="translate(-49.6 114.2) rotate(-45)"/>
  <rect class="st0" x="207.1" y="192.2" width="20" height="58.2" transform="translate(-92.8 218.3) rotate(-45)"/>
</svg>